HIERARCHY
ROOT Root
{
	OFFSET 0.00000 0.00000 0.00000
	CHANNELS 6 Xposition Yposition Zposition Zrotation Xrotation Yrotation
	JOINT Hip
	{
		OFFSET 0 0 0	
		CHANNELS 3 Zrotation Xrotation Yrotation
		JOINT Tummy
		{
			OFFSET 0 0.04 0	
			CHANNELS 3 Zrotation Xrotation Yrotation
			JOINT ChestBottom
			{
				OFFSET 0 0.194 0	
				CHANNELS 3 Zrotation Xrotation Yrotation
				JOINT ChestTop
				{
					OFFSET 0 0.166 0	
					CHANNELS 3 Zrotation Xrotation Yrotation
					JOINT LeftCollar
					{
						OFFSET 0 0.1 0	
						CHANNELS 3 Zrotation Xrotation Yrotation
						JOINT LeftUpperArm
						{
							OFFSET 0.156 -0.02 0.03	
							CHANNELS 3 Zrotation Xrotation Yrotation
							JOINT LeftForeArm
							{
								OFFSET 0.035 -0.27 -0.01	
								CHANNELS 3 Zrotation Xrotation Yrotation
								JOINT LeftHand
								{
									OFFSET 0.01 -0.27 0.01	
									CHANNELS 3 Zrotation Xrotation Yrotation
									End Site
									{
										OFFSET 0 -0.15 0
									}
								}
							}
						}
					}
					JOINT RightCollar
					{
						OFFSET 0 0.1 0	
						CHANNELS 3 Zrotation Xrotation Yrotation
						JOINT RightUpperArm
						{
							OFFSET -0.156 -0.02 0.03	
							CHANNELS 3 Zrotation Xrotation Yrotation
							JOINT RightForeArm
							{
								OFFSET -0.035 -0.27 -0.01	
								CHANNELS 3 Zrotation Xrotation Yrotation
								JOINT RightHand
								{
									OFFSET -0.01 -0.27 0.01	
									CHANNELS 3 Zrotation Xrotation Yrotation
									End Site
									{
										OFFSET 0 -0.15 0
									}
								}
							}
						}
					}
					JOINT Neck
					{
						OFFSET 0 0.1 0	
						CHANNELS 3 Zrotation Xrotation Yrotation
						JOINT Head
						{
							OFFSET 0 0.127 0.03	
							CHANNELS 3 Zrotation Xrotation Yrotation
							End Site
							{
								OFFSET 0 0.127 0.03
							}
						}
					}
				}
			}
		}
	}
	JOINT LeftHip
	{
		OFFSET 0 0 0	
		CHANNELS 3 Zrotation Xrotation Yrotation
		JOINT LeftThigh
		{
			OFFSET 0.088 -0.06 0	
			CHANNELS 3 Zrotation Xrotation Yrotation
			JOINT LeftLowerLeg
			{
				OFFSET 0 -0.39 0.02	
				CHANNELS 3 Zrotation Xrotation Yrotation
				JOINT LeftFootTop
				{
					OFFSET 0 -0.43 -0.02	
					CHANNELS 3 Zrotation Xrotation Yrotation
					JOINT LeftFootFront
					{
						OFFSET 0 -0.07 0.085	
						CHANNELS 3 Zrotation Xrotation Yrotation
						End Site
						{
							OFFSET 0 -0.005 0.09
						}
					}
				}
				JOINT LeftHeel
				{
					OFFSET 0 -0.43 -0.02	
					CHANNELS 3 Zrotation Xrotation Yrotation
					End Site
					{
						OFFSET 0 -0.075 -0.05
					}
				}
			}
		}
	}
	JOINT RightHip
	{
		OFFSET 0 0 0	
		CHANNELS 3 Zrotation Xrotation Yrotation
		JOINT RightThigh
		{
			OFFSET -0.088 -0.06 0	
			CHANNELS 3 Zrotation Xrotation Yrotation
			JOINT RightLowerLeg
			{
				OFFSET 0 -0.39 0.02	
				CHANNELS 3 Zrotation Xrotation Yrotation
				JOINT RightFootTop
				{
					OFFSET 0 -0.43 -0.02	
					CHANNELS 3 Zrotation Xrotation Yrotation
					JOINT RightFootFront
					{
						OFFSET 0 -0.07 0.085	
						CHANNELS 3 Zrotation Xrotation Yrotation
						End Site
						{
							OFFSET 0 -0.005 0.09
						}
					}
				}
				JOINT RightHeel
				{
					OFFSET 0 -0.43 -0.02	
					CHANNELS 3 Zrotation Xrotation Yrotation
					End Site
					{
						OFFSET 0 -0.075 -0.05
					}
				}
			}
		}
	}
}
MOTION
Frames: 27
Frame Time: 0.05
0 0.955 0 -0 0 -0 -0 0 -0 -0 0 -0 21.718 -3.5878 52.959 -0 0 -0 -0 0 -0 70.123 -30.381 29.837 -61.182 -80.588 17.615 -0 0 -0 -0 0 -0 25.588 -25.907 54.522 60.454 -62.095 36.037 -0 0 -0 -8.8666 -5.3682 4.6394 -8.8666 -5.3682 4.6394 -0 0 -0 -0 0 -0 -0 0 -0 -0 0 -0 -0 0 -0 -0 0 -0 -0 0 -0 -0 0 -0 -0 0 -0 -0 0 -0 -0 0 -0 -0 0 -0 
0 0.955 0 -0 0 -0 -0 0 -0 -0 0 -0 21.768 -3.5825 53.046 -0 0 -0 -0 0 -0 70.036 -30.264 29.853 -62.466 -80.627 16.353 -0 0 -0 -0 0 -0 25.429 -25.74 54.468 60.529 -62.11 36.437 -0 0 -0 -8.7019 -5.3235 4.5007 -8.7019 -5.3235 4.5007 -0 0 -0 -0 0 -0 -0 0 -0 -0 0 -0 -0 0 -0 -0 0 -0 -0 0 -0 -0 0 -0 -0 0 -0 -0 0 -0 -0 0 -0 -0 0 -0 
0 0.955 0 -0 0 -0 -0 0 -0 -0 0 -0 21.781 -3.5664 53.146 -0 0 -0 -0 0 -0 69.987 -30.18 29.737 -63.163 -80.729 15.661 -0 0 -0 -0 0 -0 25.345 -25.721 54.579 60.428 -62.259 36.453 -0 0 -0 -8.6541 -5.2519 4.3683 -8.6541 -5.2519 4.3683 -0 0 -0 -0 0 -0 -0 0 -0 -0 0 -0 -0 0 -0 -0 0 -0 -0 0 -0 -0 0 -0 -0 0 -0 -0 0 -0 -0 0 -0 -0 0 -0 
0 0.955 0 -0 0 -0 -0 0 -0 -0 0 -0 21.943 -3.5448 53.219 -0 0 -0 -0 0 -0 69.673 -29.997 29.504 -64.141 -80.853 14.857 -0 0 -0 -0 0 -0 25.334 -25.523 54.621 60.183 -62.359 36.327 -0 0 -0 -8.6875 -5.0557 4.3309 -8.6875 -5.0557 4.3309 -0 0 -0 -0 0 -0 -0 0 -0 -0 0 -0 -0 0 -0 -0 0 -0 -0 0 -0 -0 0 -0 -0 0 -0 -0 0 -0 -0 0 -0 -0 0 -0 
0 0.955 0 -0 0 -0 -0 0 -0 -0 0 -0 22.053 -3.4613 53.371 -0 0 -0 -0 0 -0 69.246 -29.914 29.438 -65.824 -80.892 13.882 -0 0 -0 -0 0 -0 25.366 -25.424 54.573 59.941 -62.564 36.395 -0 0 -0 -8.6965 -4.9115 4.3386 -8.6965 -4.9115 4.3386 -0 0 -0 -0 0 -0 -0 0 -0 -0 0 -0 -0 0 -0 -0 0 -0 -0 0 -0 -0 0 -0 -0 0 -0 -0 0 -0 -0 0 -0 -0 0 -0 
0 0.955 0 -0 0 -0 -0 0 -0 -0 0 -0 22.018 -3.4475 53.519 -0 0 -0 -0 0 -0 68.883 -29.944 29.675 -68.526 -80.562 11.984 -0 0 -0 -0 0 -0 25.558 -25.382 54.505 59.78 -62.756 36.82 -0 0 -0 -8.449 -4.8869 4.4925 -8.449 -4.8869 4.4925 -0 0 -0 -0 0 -0 -0 0 -0 -0 0 -0 -0 0 -0 -0 0 -0 -0 0 -0 -0 0 -0 -0 0 -0 -0 0 -0 -0 0 -0 -0 0 -0 
0 0.955 0 -0 0 -0 -0 0 -0 -0 0 -0 21.96 -3.4662 53.622 -0 0 -0 -0 0 -0 68.274 -30.023 29.977 -72.969 -79.999 8.7908 -0 0 -0 -0 0 -0 25.679 -25.289 54.504 59.89 -62.886 38.05 -0 0 -0 -7.8066 -4.9262 5.0641 -7.8066 -4.9262 5.0641 -0 0 -0 -0 0 -0 -0 0 -0 -0 0 -0 -0 0 -0 -0 0 -0 -0 0 -0 -0 0 -0 -0 0 -0 -0 0 -0 -0 0 -0 -0 0 -0 
0 0.955 0 -0 0 -0 -0 0 -0 -0 0 -0 21.714 -3.5189 53.775 -0 0 -0 -0 0 -0 67.667 -30.205 30.598 -78.631 -79.183 4.9592 -0 0 -0 -0 0 -0 25.768 -25.339 54.76 60.272 -63.331 40.447 -0 0 -0 -6.2711 -5.0804 6.478 -6.2711 -5.0804 6.478 -0 0 -0 -0 0 -0 -0 0 -0 -0 0 -0 -0 0 -0 -0 0 -0 -0 0 -0 -0 0 -0 -0 0 -0 -0 0 -0 -0 0 -0 -0 0 -0 
0 0.955 0 -0 0 -0 -0 0 -0 -0 0 -0 21.477 -3.6639 53.956 -0 0 -0 -0 0 -0 67.19 -30.371 31.347 -83.194 -78.414 2.1389 -0 0 -0 -0 0 -0 25.867 -25.362 55.385 60.525 -64.07 42.857 -0 0 -0 -3.48 -5.0624 9.1586 -3.48 -5.0624 9.1586 -0 0 -0 -0 0 -0 -0 0 -0 -0 0 -0 -0 0 -0 -0 0 -0 -0 0 -0 -0 0 -0 -0 0 -0 -0 0 -0 -0 0 -0 -0 0 -0 
0 0.955 0 -0 0 -0 -0 0 -0 -0 0 -0 21.415 -3.7299 54.147 -0 0 -0 -0 0 -0 66.688 -30.378 32.106 -86.338 -77.737 0.28159 -0 0 -0 -0 0 -0 26.014 -25.388 56.182 60.241 -64.937 44.811 -0 0 -0 0.35832 -4.6332 12.394 0.35832 -4.6332 12.394 -0 0 -0 -0 0 -0 -0 0 -0 -0 0 -0 -0 0 -0 -0 0 -0 -0 0 -0 -0 0 -0 -0 0 -0 -0 0 -0 -0 0 -0 -0 0 -0 
0 0.955 0 -0 0 -0 -0 0 -0 -0 0 -0 21.588 -3.5551 54.316 -0 0 -0 -0 0 -0 65.92 -30.23 32.421 -89.448 -77.706 -1.5599 -0 0 -0 -0 0 -0 26.066 -25.34 56.896 59.545 -65.841 46.283 -0 0 -0 4.0581 -3.805 15.202 4.0581 -3.805 15.202 -0 0 -0 -0 0 -0 -0 0 -0 -0 0 -0 -0 0 -0 -0 0 -0 -0 0 -0 -0 0 -0 -0 0 -0 -0 0 -0 -0 0 -0 -0 0 -0 
0 0.955 0 -0 0 -0 -0 0 -0 -0 0 -0 21.789 -3.2889 54.43 -0 0 -0 -0 0 -0 65.266 -30.093 32.517 -92.436 -78.467 -3.7135 -0 0 -0 -0 0 -0 26.133 -25.156 57.196 59.033 -66.507 47.634 -0 0 -0 6.8426 -3.2406 16.99 6.8426 -3.2406 16.99 -0 0 -0 -0 0 -0 -0 0 -0 -0 0 -0 -0 0 -0 -0 0 -0 -0 0 -0 -0 0 -0 -0 0 -0 -0 0 -0 -0 0 -0 -0 0 -0 
0 0.955 0 -0 0 -0 -0 0 -0 -0 0 -0 21.802 -3.1644 54.689 -0 0 -0 -0 0 -0 65.073 -30.163 32.516 -95.86 -79.668 -6.5884 -0 0 -0 -0 0 -0 26.342 -25.191 57.029 58.873 -66.868 48.41 -0 0 -0 8.8327 -2.735 17.843 8.8327 -2.735 17.843 -0 0 -0 -0 0 -0 -0 0 -0 -0 0 -0 -0 0 -0 -0 0 -0 -0 0 -0 -0 0 -0 -0 0 -0 -0 0 -0 -0 0 -0 -0 0 -0 
0 0.955 0 -0 0 -0 -0 0 -0 -0 0 -0 21.736 -3.1384 54.874 -0 0 -0 -0 0 -0 65.341 -30.265 32.57 -99.18 -80.946 -9.6157 -0 0 -0 -0 0 -0 26.608 -25.29 56.776 58.809 -66.979 48.503 -0 0 -0 9.8677 -2.223 18.544 9.8677 -2.223 18.544 -0 0 -0 -0 0 -0 -0 0 -0 -0 0 -0 -0 0 -0 -0 0 -0 -0 0 -0 -0 0 -0 -0 0 -0 -0 0 -0 -0 0 -0 -0 0 -0 
0 0.955 0 -0 0 -0 -0 0 -0 -0 0 -0 21.729 -3.1001 54.925 -0 0 -0 -0 0 -0 65.801 -30.28 32.625 -101.84 -81.841 -12.276 -0 0 -0 -0 0 -0 26.723 -25.395 56.825 58.608 -67.014 48.148 -0 0 -0 10.261 -1.778 19.012 10.261 -1.778 19.012 -0 0 -0 -0 0 -0 -0 0 -0 -0 0 -0 -0 0 -0 -0 0 -0 -0 0 -0 -0 0 -0 -0 0 -0 -0 0 -0 -0 0 -0 -0 0 -0 
0 0.955 0 -0 0 -0 -0 0 -0 -0 0 -0 21.91 -2.9861 54.82 -0 0 -0 -0 0 -0 66.025 -30.097 32.459 -103.75 -82.256 -14.293 -0 0 -0 -0 0 -0 26.658 -25.414 57.248 58.224 -67.105 47.65 -0 0 -0 10.226 -1.3982 19.324 10.226 -1.3982 19.324 -0 0 -0 -0 0 -0 -0 0 -0 -0 0 -0 -0 0 -0 -0 0 -0 -0 0 -0 -0 0 -0 -0 0 -0 -0 0 -0 -0 0 -0 -0 0 -0 
0 0.955 0 -0 0 -0 -0 0 -0 -0 0 -0 22.108 -2.8728 54.76 -0 0 -0 -0 0 -0 66.116 -29.972 32.097 -104.89 -82.454 -15.639 -0 0 -0 -0 0 -0 26.523 -25.399 57.671 57.866 -67.247 47.178 -0 0 -0 10.054 -1.1766 19.512 10.054 -1.1766 19.512 -0 0 -0 -0 0 -0 -0 0 -0 -0 0 -0 -0 0 -0 -0 0 -0 -0 0 -0 -0 0 -0 -0 0 -0 -0 0 -0 -0 0 -0 -0 0 -0 
0 0.955 0 -0 0 -0 -0 0 -0 -0 0 -0 22.2 -2.8445 54.871 -0 0 -0 -0 0 -0 66.224 -30.118 31.792 -104.69 -82.374 -15.592 -0 0 -0 -0 0 -0 26.5 -25.382 57.715 57.716 -67.302 46.985 -0 0 -0 10.021 -1.0439 19.634 10.021 -1.0439 19.634 -0 0 -0 -0 0 -0 -0 0 -0 -0 0 -0 -0 0 -0 -0 0 -0 -0 0 -0 -0 0 -0 -0 0 -0 -0 0 -0 -0 0 -0 -0 0 -0 
0 0.955 0 -0 0 -0 -0 0 -0 -0 0 -0 22.275 -2.714 55.049 -0 0 -0 -0 0 -0 66.21 -30.424 31.688 -103.48 -82.053 -14.347 -0 0 -0 -0 0 -0 26.49 -25.35 57.557 57.562 -67.259 46.888 -0 0 -0 10.124 -0.86696 19.793 10.124 -0.86696 19.793 -0 0 -0 -0 0 -0 -0 0 -0 -0 0 -0 -0 0 -0 -0 0 -0 -0 0 -0 -0 0 -0 -0 0 -0 -0 0 -0 -0 0 -0 -0 0 -0 
0 0.955 0 -0 0 -0 -0 0 -0 -0 0 -0 22.272 -2.4447 55.19 -0 0 -0 -0 0 -0 66.166 -30.759 31.868 -101.77 -81.51 -12.443 -0 0 -0 -0 0 -0 26.483 -25.406 57.52 57.602 -67.131 47.098 -0 0 -0 10.328 -0.66772 20.102 10.328 -0.66772 20.102 -0 0 -0 -0 0 -0 -0 0 -0 -0 0 -0 -0 0 -0 -0 0 -0 -0 0 -0 -0 0 -0 -0 0 -0 -0 0 -0 -0 0 -0 -0 0 -0 
0 0.955 0 -0 0 -0 -0 0 -0 -0 0 -0 22.082 -2.2102 55.207 -0 0 -0 -0 0 -0 66.056 -31.111 32.079 -101.28 -80.524 -11.129 -0 0 -0 -0 0 -0 26.549 -25.522 57.834 57.95 -67.191 47.554 -0 0 -0 10.594 -0.46596 20.587 10.594 -0.46596 20.586 -0 0 -0 -0 0 -0 -0 0 -0 -0 0 -0 -0 0 -0 -0 0 -0 -0 0 -0 -0 0 -0 -0 0 -0 -0 0 -0 -0 0 -0 -0 0 -0 
0 0.955 0 -0 0 -0 -0 0 -0 -0 0 -0 22.344 -2.1732 55.218 -0 0 -0 -0 0 -0 65.033 -31.551 31.792 -102.21 -78.501 -8.5674 -0 0 -0 -0 0 -0 26.307 -25.119 58.022 58.876 -67.371 48.428 -0 0 -0 10.853 -0.12553 21.068 10.853 -0.12553 21.068 -0 0 -0 -0 0 -0 -0 0 -0 -0 0 -0 -0 0 -0 -0 0 -0 -0 0 -0 -0 0 -0 -0 0 -0 -0 0 -0 -0 0 -0 -0 0 -0 
0 0.955 0 -0 0 -0 -0 0 -0 -0 0 -0 22.719 -2.1056 55.301 -0 0 -0 -0 0 -0 63.747 -32.753 32.803 -99.832 -74.841 3.7395 -0 0 -0 -0 0 -0 25.972 -24.589 58.206 59.837 -67.384 49.189 -0 0 -0 10.987 0.16043 21.537 10.987 0.16043 21.537 -0 0 -0 -0 0 -0 -0 0 -0 -0 0 -0 -0 0 -0 -0 0 -0 -0 0 -0 -0 0 -0 -0 0 -0 -0 0 -0 -0 0 -0 -0 0 -0 
0 0.955 0 -0 0 -0 -0 0 -0 -0 0 -0 23.164 -1.9779 55.51 -0 0 -0 -0 0 -0 61.969 -33.966 33.433 -96.725 -73.241 11.224 -0 0 -0 -0 0 -0 25.714 -23.916 58.372 60.285 -67.483 50.362 -0 0 -0 11.069 0.20506 21.832 11.069 0.20506 21.832 -0 0 -0 -0 0 -0 -0 0 -0 -0 0 -0 -0 0 -0 -0 0 -0 -0 0 -0 -0 0 -0 -0 0 -0 -0 0 -0 -0 0 -0 -0 0 -0 
0 0.955 0 -0 0 -0 -0 0 -0 -0 0 -0 23.525 -2.0311 55.984 -0 0 -0 -0 0 -0 60.124 -35.308 33.136 -91.018 -72.893 18.628 -0 0 -0 -0 0 -0 25.806 -23.23 58.501 59.891 -67.688 50.735 -0 0 -0 11.307 0.097097 21.931 11.307 0.097097 21.931 -0 0 -0 -0 0 -0 -0 0 -0 -0 0 -0 -0 0 -0 -0 0 -0 -0 0 -0 -0 0 -0 -0 0 -0 -0 0 -0 -0 0 -0 -0 0 -0 
0 0.955 0 -0 0 -0 -0 0 -0 -0 0 -0 23.729 -2.2858 56.433 -0 0 -0 -0 0 -0 59.117 -36.396 32.842 -86.861 -73.279 22.824 -0 0 -0 -0 0 -0 26.25 -22.81 58.657 59.006 -67.896 50.767 -0 0 -0 11.855 -0.42452 21.908 11.855 -0.42452 21.908 -0 0 -0 -0 0 -0 -0 0 -0 -0 0 -0 -0 0 -0 -0 0 -0 -0 0 -0 -0 0 -0 -0 0 -0 -0 0 -0 -0 0 -0 -0 0 -0 
0 0.955 0 -0 0 -0 -0 0 -0 -0 0 -0 23.612 -2.424 56.376 -0 0 -0 -0 0 -0 59.126 -37.192 33.818 -84.567 -73.799 26.505 -0 0 -0 -0 0 -0 26.739 -22.957 59.334 57.45 -67.715 49.643 -0 0 -0 12.427 -0.95163 21.844 12.427 -0.95163 21.844 -0 0 -0 -0 0 -0 -0 0 -0 -0 0 -0 -0 0 -0 -0 0 -0 -0 0 -0 -0 0 -0 -0 0 -0 -0 0 -0 -0 0 -0 -0 0 -0 
